<svg width="66" height="66" viewBox="0 0 66 66" fill="none" xmlns="http://www.w3.org/2000/svg">
<path d="M54.1011 58.3733C61.3719 52.32 66 43.2005 66 33C66 14.7746 51.2254 0 33 0C14.7746 0 0 14.7746 0 33C0 43.2005 4.62812 52.32 11.8989 58.3733H54.1011Z" fill="#A3D4FF"/>
<path d="M54.101 58.3732C61.0005 52.6292 65.5202 44.1242 65.964 34.5546L44.3566 12.8978L54.101 58.3732Z" fill="#65B1FC"/>
<path d="M22.043 21.0465C22.043 18.5568 24.0613 16.5385 26.551 16.5385C29.0406 16.5385 31.0589 18.5568 31.0589 21.0465V23.0257H34.9408V21.0465C34.9408 18.5568 36.9591 16.5385 39.4488 16.5385C41.9385 16.5385 43.9568 18.5568 43.9568 21.0465V64.1373C47.6965 62.8214 51.1277 60.8508 54.1129 58.3631L47.8692 20.3602C46.6732 13.0784 40.3794 7.73438 33 7.73438C25.6206 7.73438 19.3268 13.0784 18.1305 20.3602L11.887 58.3631C14.8722 60.8507 18.3034 62.8213 22.0431 64.1373V21.0465H22.043Z" fill="#636978"/>
<path d="M54.1132 58.3631L47.8696 20.3602C46.6732 13.0784 40.3795 7.73438 33 7.73438C32.9994 7.73438 32.9988 7.73438 32.9982 7.73438V23.0257H34.9409V21.0465C34.9409 18.5568 36.9592 16.5385 39.4489 16.5385C41.9386 16.5385 43.9569 18.5568 43.9569 21.0465V64.1373C47.6967 62.8213 51.128 60.8508 54.1132 58.3631Z" fill="#414952"/>
<path d="M39.4885 16.0365C36.9836 16.0365 34.9529 18.0672 34.9529 20.5721V22.5634H31.0472V20.5721C31.0472 18.0672 29.0165 16.0365 26.5116 16.0365C24.0067 16.0365 21.976 18.0672 21.976 20.5721V64.1135C25.4233 65.335 29.1339 65.9999 33 65.9999C36.866 65.9999 40.5767 65.335 44.024 64.1137V20.5722C44.024 18.0672 41.9934 16.0365 39.4885 16.0365Z" fill="white"/>
<path d="M39.4885 16.0365C36.9836 16.0365 34.9529 18.0672 34.9529 20.5721V22.5634H32.9983V65.9999H33.0001C36.8662 65.9999 40.5768 65.3352 44.0242 64.1137V20.5722C44.0241 18.0672 41.9934 16.0365 39.4885 16.0365Z" fill="#E9EDF5"/>
<path d="M28.5832 22.7269C28.8648 21.5241 28.1179 20.3207 26.9151 20.0391C25.7122 19.7575 24.5088 20.5044 24.2272 21.7073C23.9456 22.9101 24.6925 24.1135 25.8954 24.3951C27.0982 24.6767 28.3016 23.9298 28.5832 22.7269Z" fill="#414952"/>
<path d="M41.1753 23.8103C42.0485 22.9372 42.0485 21.5216 41.1753 20.6484C40.3022 19.7753 38.8866 19.7753 38.0134 20.6484C37.1403 21.5216 37.1403 22.9372 38.0134 23.8103C38.8866 24.6835 40.3022 24.6835 41.1753 23.8103Z" fill="#23272B"/>
<path d="M34.9639 27.4351L32.9982 30.57L31.0361 27.4351V22.2275H34.9639V27.4351Z" fill="#FFCE00"/>
<path d="M32.9982 22.2275V30.57L34.9639 27.4351V22.2275H32.9982Z" fill="#FDBA12"/>
</svg>
