<svg width="241" height="37" viewBox="0 0 241 37" fill="none" xmlns="http://www.w3.org/2000/svg">
<path d="M26.656 13.152C26.656 15.104 26.208 16.896 25.312 18.528C24.416 20.128 23.04 21.424 21.184 22.416C19.328 23.408 17.024 23.904 14.272 23.904H9.184V36H0.976V2.304H14.272C16.96 2.304 19.232 2.768 21.088 3.696C22.944 4.624 24.336 5.904 25.264 7.536C26.192 9.168 26.656 11.04 26.656 13.152ZM13.648 17.376C15.216 17.376 16.384 17.008 17.152 16.272C17.92 15.536 18.304 14.496 18.304 13.152C18.304 11.808 17.92 10.768 17.152 10.032C16.384 9.296 15.216 8.928 13.648 8.928H9.184V17.376H13.648ZM39.1371 0.48V36H30.9291V0.48H39.1371ZM43.4534 22.56C43.4534 19.808 43.9654 17.392 44.9894 15.312C46.0454 13.232 47.4694 11.632 49.2614 10.512C51.0534 9.392 53.0534 8.832 55.2614 8.832C57.1494 8.832 58.7974 9.216 60.2054 9.984C61.6454 10.752 62.7494 11.76 63.5174 13.008V9.216H71.7254V36H63.5174V32.208C62.7174 33.456 61.5974 34.464 60.1574 35.232C58.7494 36 57.1014 36.384 55.2134 36.384C53.0374 36.384 51.0534 35.824 49.2614 34.704C47.4694 33.552 46.0454 31.936 44.9894 29.856C43.9654 27.744 43.4534 25.312 43.4534 22.56ZM63.5174 22.608C63.5174 20.56 62.9414 18.944 61.7894 17.76C60.6694 16.576 59.2934 15.984 57.6614 15.984C56.0294 15.984 54.6374 16.576 53.4854 17.76C52.3654 18.912 51.8054 20.512 51.8054 22.56C51.8054 24.608 52.3654 26.24 53.4854 27.456C54.6374 28.64 56.0294 29.232 57.6614 29.232C59.2934 29.232 60.6694 28.64 61.7894 27.456C62.9414 26.272 63.5174 24.656 63.5174 22.608ZM93.9835 8.928C97.1195 8.928 99.6155 9.952 101.472 12C103.36 14.016 104.304 16.8 104.304 20.352V36H96.1435V21.456C96.1435 19.664 95.6795 18.272 94.7515 17.28C93.8235 16.288 92.5755 15.792 91.0075 15.792C89.4395 15.792 88.1915 16.288 87.2635 17.28C86.3355 18.272 85.8715 19.664 85.8715 21.456V36H77.6635V9.216H85.8715V12.768C86.7035 11.584 87.8235 10.656 89.2315 9.984C90.6395 9.28 92.2235 8.928 93.9835 8.928Z" fill="#6C63FF"/>
<path d="M134.727 21.84C134.727 22.672 134.679 23.552 134.583 24.48H113.559C113.719 27.072 114.599 29.104 116.199 30.576C117.831 32.016 119.799 32.736 122.103 32.736C123.991 32.736 125.559 32.304 126.807 31.44C128.087 30.544 128.983 29.36 129.495 27.888H134.199C133.495 30.416 132.087 32.48 129.975 34.08C127.863 35.648 125.239 36.432 122.103 36.432C119.607 36.432 117.367 35.872 115.383 34.752C113.431 33.632 111.895 32.048 110.775 30C109.655 27.92 109.095 25.52 109.095 22.8C109.095 20.08 109.639 17.696 110.727 15.648C111.815 13.6 113.335 12.032 115.287 10.944C117.271 9.824 119.543 9.264 122.103 9.264C124.599 9.264 126.807 9.808 128.727 10.896C130.647 11.984 132.119 13.488 133.143 15.408C134.199 17.296 134.727 19.44 134.727 21.84ZM130.215 20.928C130.215 19.264 129.847 17.84 129.111 16.656C128.375 15.44 127.367 14.528 126.087 13.92C124.839 13.28 123.447 12.96 121.911 12.96C119.703 12.96 117.815 13.664 116.247 15.072C114.711 16.48 113.831 18.432 113.607 20.928H130.215ZM150.285 31.968L158.445 9.696H163.101L152.781 36H147.693L137.373 9.696H142.077L150.285 31.968ZM191.399 21.84C191.399 22.672 191.351 23.552 191.255 24.48H170.231C170.391 27.072 171.271 29.104 172.871 30.576C174.503 32.016 176.471 32.736 178.775 32.736C180.663 32.736 182.231 32.304 183.479 31.44C184.759 30.544 185.655 29.36 186.167 27.888H190.871C190.167 30.416 188.759 32.48 186.647 34.08C184.535 35.648 181.911 36.432 178.775 36.432C176.279 36.432 174.039 35.872 172.055 34.752C170.103 33.632 168.567 32.048 167.447 30C166.327 27.92 165.767 25.52 165.767 22.8C165.767 20.08 166.311 17.696 167.399 15.648C168.487 13.6 170.007 12.032 171.959 10.944C173.943 9.824 176.215 9.264 178.775 9.264C181.271 9.264 183.479 9.808 185.399 10.896C187.319 11.984 188.791 13.488 189.815 15.408C190.871 17.296 191.399 19.44 191.399 21.84ZM186.887 20.928C186.887 19.264 186.519 17.84 185.783 16.656C185.047 15.44 184.039 14.528 182.759 13.92C181.511 13.28 180.119 12.96 178.583 12.96C176.375 12.96 174.487 13.664 172.919 15.072C171.383 16.48 170.503 18.432 170.279 20.928H186.887ZM209.981 9.216C213.181 9.216 215.773 10.192 217.757 12.144C219.741 14.064 220.733 16.848 220.733 20.496V36H216.413V21.12C216.413 18.496 215.757 16.496 214.445 15.12C213.133 13.712 211.341 13.008 209.069 13.008C206.765 13.008 204.925 13.728 203.549 15.168C202.205 16.608 201.533 18.704 201.533 21.456V36H197.165V9.696H201.533V13.44C202.397 12.096 203.565 11.056 205.037 10.32C206.541 9.584 208.189 9.216 209.981 9.216ZM233.196 13.296V28.8C233.196 30.08 233.468 30.992 234.012 31.536C234.556 32.048 235.5 32.304 236.844 32.304H240.06V36H236.124C233.692 36 231.868 35.44 230.652 34.32C229.436 33.2 228.828 31.36 228.828 28.8V13.296H225.42V9.696H228.828V3.072H233.196V9.696H240.06V13.296H233.196Z" fill="#2B2866"/>
</svg>
