<svg width="236" height="236" viewBox="0 0 236 236" fill="none" xmlns="http://www.w3.org/2000/svg">
<rect width="236" height="236" fill="#E5E5E5"/>
<rect width="1280" height="720" transform="translate(-624 -238)" fill="white"/>
<rect x="-378" y="-238" width="1034" height="720" fill="white"/>
<path d="M195.437 210.187C187.054 210.187 182.812 208.672 178.709 207.207C175.036 205.895 171.565 204.656 164.461 204.656C157.358 204.656 153.886 205.895 150.213 207.207C149.713 207.385 149.213 207.564 148.706 207.739C148.248 207.898 147.764 207.964 147.28 207.936C146.797 207.907 146.324 207.783 145.888 207.571C145.453 207.36 145.063 207.064 144.742 206.702C144.42 206.34 144.173 205.918 144.015 205.46C143.857 205.003 143.79 204.518 143.819 204.035C143.848 203.552 143.972 203.079 144.183 202.643C144.395 202.207 144.69 201.818 145.052 201.496C145.415 201.175 145.837 200.928 146.294 200.77C146.779 200.602 147.256 200.432 147.732 200.263C151.835 198.797 156.078 197.282 164.461 197.282C172.844 197.282 177.087 198.797 181.189 200.263C184.863 201.573 188.332 202.812 195.437 202.812C196.415 202.812 197.353 203.201 198.045 203.893C198.736 204.584 199.125 205.522 199.125 206.5C199.125 207.478 198.736 208.416 198.045 209.107C197.353 209.799 196.415 210.187 195.437 210.187Z" fill="#C8C6F2"/>
<path d="M210.187 207.943C209.315 207.944 208.47 207.635 207.804 207.072C207.137 206.509 206.692 205.727 206.548 204.867C206.403 204.006 206.568 203.122 207.014 202.372C207.46 201.622 208.157 201.054 208.982 200.77C209.467 200.602 209.944 200.432 210.421 200.263C213.763 198.957 217.254 198.072 220.815 197.629C221.297 197.569 221.786 197.605 222.254 197.735C222.723 197.865 223.161 198.086 223.543 198.385C223.926 198.685 224.245 199.057 224.483 199.481C224.721 199.904 224.873 200.371 224.931 200.853C224.988 201.336 224.949 201.825 224.817 202.292C224.685 202.76 224.462 203.196 224.16 203.577C223.858 203.958 223.484 204.276 223.06 204.512C222.635 204.748 222.168 204.897 221.685 204.952C217.988 205.391 215.517 206.274 212.901 207.208C212.401 207.387 211.901 207.565 211.393 207.741C211.005 207.875 210.598 207.944 210.187 207.943Z" fill="#C8C6F2"/>
<path d="M210.187 224.937C209.315 224.938 208.47 224.63 207.804 224.066C207.137 223.503 206.692 222.722 206.548 221.861C206.403 221 206.568 220.116 207.014 219.366C207.46 218.616 208.157 218.048 208.982 217.764C209.467 217.597 209.944 217.426 210.421 217.257C213.763 215.952 217.254 215.067 220.815 214.623C221.783 214.513 222.756 214.791 223.52 215.396C224.284 216.001 224.778 216.884 224.893 217.852C225.008 218.82 224.735 219.794 224.134 220.561C223.533 221.328 222.652 221.826 221.685 221.946C217.988 222.386 215.517 223.268 212.901 224.202C212.401 224.381 211.901 224.56 211.393 224.736C211.005 224.869 210.598 224.938 210.187 224.937Z" fill="#C8C6F2"/>
<path d="M129.067 210.016C128.964 210.016 128.861 210.012 128.757 210.003C123.318 209.551 119.983 208.359 116.757 207.207C113.084 205.895 109.612 204.656 102.509 204.656C95.4062 204.656 91.9354 205.895 88.2626 207.207C86.1983 207.986 84.0867 208.632 81.9404 209.143C81.464 209.262 80.9687 209.285 80.4834 209.21C79.9981 209.135 79.5327 208.964 79.1144 208.706C78.6962 208.449 78.3335 208.111 78.0477 207.712C77.7619 207.312 77.5588 206.86 77.4501 206.381C77.3415 205.902 77.3297 205.406 77.4152 204.923C77.5008 204.439 77.6821 203.978 77.9484 203.565C78.2148 203.153 78.5608 202.798 78.9663 202.521C79.3718 202.244 79.8285 202.05 80.3096 201.952C82.1676 201.504 83.9954 200.939 85.7823 200.261C89.8847 198.796 94.1253 197.281 102.509 197.281C110.893 197.281 115.134 198.796 119.237 200.261C122.146 201.3 124.892 202.281 129.368 202.653C130.317 202.731 131.198 203.173 131.828 203.886C132.459 204.599 132.789 205.528 132.75 206.479C132.711 207.43 132.306 208.329 131.619 208.988C130.933 209.647 130.018 210.015 129.067 210.016V210.016Z" fill="#C8C6F2"/>
<path d="M25.8166 206.5C25.7143 206.5 25.6111 206.496 25.5069 206.488C20.0678 206.035 16.7334 204.844 13.5064 203.691C12.3315 203.272 11.222 202.876 10.0176 202.52C9.0796 202.243 8.29016 201.604 7.8229 200.745C7.35563 199.886 7.24882 198.876 7.52595 197.938C7.80309 197 8.44148 196.211 9.30067 195.744C10.1599 195.276 11.1695 195.17 12.1074 195.447C13.5092 195.862 14.7689 196.311 15.9867 196.746C18.8952 197.785 21.6424 198.766 26.1181 199.137C27.0665 199.216 27.9481 199.657 28.5783 200.37C29.2086 201.083 29.5387 202.012 29.4998 202.963C29.4609 203.914 29.0558 204.813 28.3694 205.472C27.683 206.131 26.7683 206.5 25.8166 206.5Z" fill="#C8C6F2"/>
<path d="M25.8166 221.25C25.7143 221.25 25.6111 221.246 25.5069 221.238C20.0678 220.785 16.7334 219.594 13.5064 218.441C12.3315 218.022 11.222 217.626 10.0176 217.27C9.0796 216.993 8.29016 216.354 7.8229 215.495C7.35563 214.636 7.24882 213.626 7.52595 212.688C7.80309 211.75 8.44148 210.961 9.30067 210.494C10.1599 210.026 11.1695 209.92 12.1074 210.197C13.5092 210.612 14.7689 211.061 15.9867 211.496C18.8952 212.535 21.6424 213.516 26.1181 213.887C27.0665 213.966 27.9481 214.407 28.5783 215.12C29.2086 215.833 29.5387 216.762 29.4998 217.713C29.4609 218.664 29.0558 219.563 28.3694 220.222C27.683 220.881 26.7683 221.25 25.8166 221.25Z" fill="#C8C6F2"/>
<path d="M70.0625 210.17H69.9703C62.5999 209.992 58.4589 208.513 54.8055 207.208C51.1359 205.895 47.6669 204.656 40.5625 204.656C39.5845 204.656 38.6466 204.268 37.955 203.576C37.2635 202.885 36.875 201.947 36.875 200.969C36.875 199.991 37.2635 199.053 37.955 198.361C38.6466 197.67 39.5845 197.281 40.5625 197.281C48.9446 197.281 53.1867 198.796 57.2895 200.262C60.723 201.488 63.9666 202.647 70.1496 202.797C71.1276 202.808 72.0609 203.208 72.7443 203.908C73.4277 204.607 73.8051 205.55 73.7935 206.528C73.782 207.506 73.3824 208.439 72.6827 209.123C71.983 209.806 71.0405 210.183 70.0625 210.172V210.17Z" fill="#C8C6F2"/>
<path d="M29.5 188.155C29.1233 188.154 28.7488 188.097 28.3896 187.983C27.2999 187.639 26.2873 187.278 25.3073 186.928C21.6355 185.614 18.1669 184.375 11.0625 184.375C10.0845 184.375 9.14658 183.987 8.45504 183.295C7.7635 182.603 7.375 181.665 7.375 180.688C7.375 179.71 7.7635 178.772 8.45504 178.08C9.14658 177.389 10.0845 177 11.0625 177C19.4442 177 23.6867 178.515 27.789 179.98C28.7468 180.322 29.6516 180.646 30.6095 180.948C31.4511 181.212 32.1703 181.769 32.6366 182.517C33.103 183.266 33.2857 184.157 33.1515 185.028C33.0173 185.9 32.5751 186.695 31.9052 187.268C31.2352 187.842 30.3819 188.156 29.5 188.155Z" fill="#C8C6F2"/>
<path d="M40.5625 173.312H40.4703C33.0999 173.134 28.9589 171.653 25.3055 170.35C21.6327 169.039 18.1637 167.8 11.0593 167.8C10.0813 167.8 9.14336 167.411 8.45182 166.72C7.76028 166.028 7.37177 165.09 7.37177 164.112C7.37177 163.134 7.76028 162.196 8.45182 161.505C9.14336 160.813 10.0813 160.425 11.0593 160.425C19.4414 160.425 23.6834 161.94 27.7862 163.405C31.2198 164.632 34.4634 165.79 40.6464 165.94C41.6078 165.975 42.5176 166.384 43.1815 167.081C43.8453 167.777 44.2108 168.705 44.1999 169.667C44.1889 170.629 43.8024 171.549 43.1229 172.23C42.4433 172.911 41.5245 173.299 40.5625 173.312Z" fill="#C8C6F2"/>
<path d="M224.937 173.312H224.845C217.475 173.134 213.334 171.653 209.68 170.35C206.008 169.039 202.539 167.8 195.434 167.8C194.456 167.8 193.518 167.411 192.827 166.72C192.135 166.028 191.747 165.09 191.747 164.112C191.747 163.134 192.135 162.196 192.827 161.505C193.518 160.813 194.456 160.425 195.434 160.425C203.816 160.425 208.058 161.94 212.161 163.405C215.595 164.632 218.838 165.79 225.021 165.94C225.983 165.975 226.893 166.384 227.556 167.081C228.22 167.777 228.586 168.705 228.575 169.667C228.564 170.629 228.177 171.549 227.498 172.23C226.818 172.911 225.899 173.299 224.937 173.312Z" fill="#C8C6F2"/>
<path d="M224.937 189.889H224.845C217.475 189.711 213.334 188.232 209.68 186.927C206.011 185.614 202.542 184.375 195.437 184.375C194.459 184.375 193.522 183.987 192.83 183.295C192.138 182.603 191.75 181.665 191.75 180.688C191.75 179.71 192.138 178.772 192.83 178.08C193.522 177.389 194.459 177 195.437 177C203.82 177 208.062 178.515 212.164 179.98C215.598 181.207 218.842 182.366 225.025 182.516C226.003 182.527 226.936 182.927 227.619 183.626C228.303 184.326 228.68 185.269 228.669 186.247C228.657 187.225 228.257 188.158 227.558 188.841C226.858 189.525 225.915 189.902 224.937 189.891V189.889Z" fill="#C8C6F2"/>
<path d="M195.437 226.781C187.054 226.781 182.812 225.266 178.709 223.801C176.715 223.036 174.665 222.424 172.579 221.968C171.62 221.773 170.779 221.205 170.239 220.39C169.699 219.574 169.505 218.578 169.7 217.619C169.895 216.661 170.463 215.819 171.279 215.28C172.094 214.74 173.091 214.546 174.049 214.741C176.48 215.264 178.867 215.971 181.191 216.855C184.863 218.167 188.332 219.406 195.437 219.406C196.415 219.406 197.353 219.795 198.045 220.486C198.736 221.178 199.125 222.116 199.125 223.094C199.125 224.072 198.736 225.01 198.045 225.701C197.353 226.393 196.415 226.781 195.437 226.781Z" fill="#C8C6F2"/>
<path d="M133.484 226.781C125.102 226.781 120.86 225.266 116.757 223.801C113.084 222.489 109.612 221.25 102.509 221.25C95.4062 221.25 91.9354 222.489 88.2626 223.801C84.1603 225.266 79.9174 226.781 71.5352 226.781C64.8889 226.781 60.9083 225.808 57.8915 224.856C57.4296 224.711 57.001 224.475 56.6301 224.164C56.2592 223.853 55.9532 223.471 55.7297 223.042C55.2783 222.174 55.19 221.163 55.4842 220.23C55.7785 219.297 56.4312 218.52 57.2987 218.068C58.1663 217.617 59.1777 217.529 60.1104 217.823C62.5926 218.607 65.8906 219.406 71.5361 219.406C78.641 219.406 82.11 218.167 85.7828 216.855C89.8851 215.39 94.1257 213.875 102.51 213.875C110.895 213.875 115.135 215.39 119.238 216.855C122.911 218.167 126.38 219.406 133.485 219.406C140.59 219.406 144.06 218.167 147.734 216.855C151.076 215.55 154.568 214.665 158.128 214.221C158.61 214.161 159.1 214.197 159.568 214.327C160.036 214.457 160.474 214.678 160.856 214.978C161.239 215.277 161.558 215.65 161.797 216.073C162.035 216.497 162.187 216.963 162.244 217.445C162.302 217.928 162.263 218.417 162.131 218.884C161.998 219.352 161.775 219.789 161.473 220.17C161.172 220.551 160.798 220.868 160.373 221.104C159.948 221.34 159.481 221.49 158.999 221.545C155.301 221.984 152.83 222.867 150.214 223.801C146.11 225.266 141.867 226.781 133.484 226.781Z" fill="#C8C6F2"/>
<path d="M213.875 92.1875H195.341C192.979 92.1878 190.65 91.6387 188.537 90.5834L184.375 88.5L179.457 81.125L177 77.4375H190.1C193.555 77.4368 196.907 78.6121 199.604 80.7701L213.875 92.1875Z" fill="#524E9F"/>
<path d="M224.938 129.062H11.0625L40.5625 181.609C56.05 181.609 56.05 187.141 71.5352 187.141C87.0204 187.141 87.0227 181.609 102.51 181.609C117.998 181.609 117.998 187.141 133.485 187.141C148.973 187.141 148.973 181.609 164.46 181.609C179.948 181.609 179.948 187.141 195.435 187.141L224.938 129.062Z" fill="#7C77C9"/>
<path d="M55.3125 169.625C55.3125 170.603 54.924 171.541 54.2325 172.232C53.5409 172.924 52.603 173.313 51.625 173.313H35.9024L31.8969 166.173C32.3092 166.016 32.7466 165.937 33.1875 165.938H51.625C52.603 165.938 53.5409 166.326 54.2325 167.018C54.924 167.709 55.3125 168.647 55.3125 169.625Z" fill="#0A9ACD"/>
<path d="M206.21 165.938L202.462 173.312H162.25C161.272 173.312 160.334 172.924 159.643 172.232C158.951 171.541 158.562 170.603 158.562 169.625C158.562 168.647 158.951 167.709 159.643 167.018C160.334 166.326 161.272 165.938 162.25 165.938H206.21Z" fill="#0A9ACD"/>
<path d="M199.125 154.875C205.954 154.875 212.505 152.169 217.343 147.349C222.181 142.53 224.912 135.989 224.937 129.16C224.95 125.762 224.292 122.395 223.001 119.252C221.709 116.109 219.81 113.252 217.412 110.845C215.014 108.438 212.164 106.527 209.026 105.224C205.888 103.921 202.523 103.25 199.125 103.25H36.9727C33.5747 103.25 30.2102 103.921 27.0721 105.224C23.934 106.527 21.0841 108.438 18.6859 110.845C16.2877 113.252 14.3884 116.109 13.097 119.252C11.8055 122.395 11.1474 125.762 11.1602 129.16C11.1861 135.989 13.917 142.53 18.755 147.349C23.593 152.169 30.1437 154.875 36.9727 154.875H199.125Z" fill="#9893E7"/>
<path d="M140.125 88.5H126.297L121.688 77.4375H110.625L103.25 88.5H88.5L81.125 103.25H151.188L140.125 88.5Z" fill="#726AEE"/>
<path d="M184.107 129.062H184.375L184.46 128.978C186.771 126.666 188.605 123.922 189.855 120.902C191.106 117.883 191.75 114.646 191.75 111.377V106.172C191.75 101.841 190.62 97.5841 188.47 93.8233L185.85 89.2375L188.537 90.582C190.649 91.6378 192.979 92.1874 195.341 92.1875H209.266L199.604 84.4575C196.907 82.2996 193.555 81.1243 190.1 81.125H180.967C176.935 75.3114 171.841 70.3109 165.955 66.386L165.937 66.375L165.548 65.5965C164.557 63.6143 163.034 61.9473 161.148 60.7823C159.263 59.6172 157.091 59.0001 154.875 59.0001C152.659 59.0001 150.487 59.6172 148.602 60.7823C146.716 61.9473 145.193 63.6143 144.202 65.5965L143.812 66.375L132.75 70.0625C136.447 71.9106 140.442 73.0881 144.55 73.5402C145.802 73.672 147.013 74.0566 148.112 74.6706C149.211 75.2847 150.173 76.1154 150.941 77.1125L151.187 77.4375L184.107 129.062Z" fill="#2B2866"/>
<path d="M191.75 106.172V106.938H184.873C182.143 106.938 179.474 106.13 177.203 104.614L165.937 99.5625L162.25 88.5L163.55 88.7074L165.937 95.875L177.203 100.927C179.474 102.442 182.143 103.25 184.873 103.25H191.575C191.693 104.22 191.752 105.196 191.75 106.172Z" fill="#0296E5"/>
<path d="M92.3797 128.87C94.657 126.593 96.4634 123.89 97.6958 120.914C98.9282 117.939 99.5625 114.75 99.5625 111.53V111.35C99.5621 103.626 97.5462 96.036 93.7141 89.3297L90.0114 82.8498C86.5923 76.8669 81.8274 71.762 76.0939 67.9394L73.75 66.375L73.3605 65.5965C72.3695 63.6143 70.8461 61.9473 68.961 60.7822C67.0759 59.6171 64.9036 59 62.6875 59C60.4714 59 58.2991 59.6171 56.414 60.7822C54.5289 61.9473 53.0055 63.6143 52.0145 65.5965L51.625 66.375L40.5625 70.0625C44.1908 71.8767 48.1074 73.0449 52.1366 73.5149C53.4582 73.6585 54.7372 74.0669 55.8973 74.7159C57.0575 75.3648 58.0749 76.2409 58.8889 77.2918L92.3797 128.87Z" fill="#2B2866"/>
<path d="M71.9436 116.119C71.2521 115.428 70.3142 115.039 69.3363 115.039C68.3584 115.039 67.4205 115.428 66.729 116.119L57.7928 125.055L53.6702 122.307C52.8564 121.776 51.866 121.588 50.9141 121.783C49.9623 121.978 49.126 122.541 48.587 123.35C48.048 124.158 47.8498 125.147 48.0357 126.1C48.2215 127.054 48.7763 127.896 49.5794 128.443L60.6419 135.818C61.0446 136.092 61.4978 136.284 61.9751 136.382C62.4525 136.48 62.9445 136.483 63.4228 136.39C63.9012 136.296 64.3563 136.109 64.7618 135.839C65.1674 135.569 65.5154 135.221 65.7858 134.816C66.0561 134.41 66.2434 133.955 66.3368 133.477C66.4301 132.999 66.4278 132.507 66.3299 132.029C66.232 131.552 66.0404 131.099 65.7662 130.696C65.4921 130.293 65.1408 129.948 64.7327 129.682L64.0505 129.227L71.9436 121.334C72.635 120.642 73.0235 119.704 73.0235 118.726C73.0235 117.748 72.635 116.81 71.9436 116.119Z" fill="#FBB540"/>
<path d="M84.8125 136.438V129.062C84.8125 128.085 84.424 127.147 83.7325 126.455C83.0409 125.764 82.103 125.375 81.125 125.375C80.147 125.375 79.2091 125.764 78.5175 126.455C77.826 127.147 77.4375 128.085 77.4375 129.062V136.438H73.75C72.772 136.438 71.8341 136.826 71.1425 137.518C70.451 138.209 70.0625 139.147 70.0625 140.125C70.0625 141.103 70.451 142.041 71.1425 142.732C71.8341 143.424 72.772 143.812 73.75 143.812H84.8125C85.7905 143.812 86.7284 143.424 87.42 142.732C88.1115 142.041 88.5 141.103 88.5 140.125C88.5 139.147 88.1115 138.209 87.42 137.518C86.7284 136.826 85.7905 136.438 84.8125 136.438Z" fill="#FBB540"/>
<path d="M98.6959 117.982C98.4277 118.98 98.0936 119.959 97.6957 120.913C96.4632 123.89 94.656 126.595 92.3774 128.873C92.2549 128.994 92.0892 129.063 91.9165 129.062H84.8125C78.9446 129.062 73.317 126.731 69.1678 122.582C65.0185 118.433 62.6875 112.805 62.6875 106.938V93.1509C62.6876 91.1491 62.5286 89.1505 62.2118 87.1739C61.9144 85.3804 61.4264 83.6238 60.7562 81.9339L59 77.4375H59.0876C62.3043 77.4378 65.443 78.4278 68.0776 80.2733C70.7122 82.1188 72.7152 84.7303 73.8145 87.7533L79.7698 104.14C81.1974 108.063 83.7587 111.473 87.1285 113.938C90.4983 116.402 94.5246 117.81 98.6959 117.982Z" fill="#EAEAE8"/>
<path d="M93.7086 117.166L92.8052 121.688L84.1395 115.188C82.2502 113.772 80.7167 111.934 79.6606 109.822C78.6045 107.71 78.0548 105.381 78.0552 103.02V99.4196L79.7698 104.14C80.903 107.255 82.7562 110.059 85.1784 112.323C87.6007 114.586 90.5234 116.246 93.7086 117.166Z" fill="#EAEAE8"/>
<path d="M47.3079 44.25C47.726 43.0656 47.939 41.8185 47.9375 40.5625C47.9371 38.1893 47.1739 35.8791 45.7604 33.9727C44.3469 32.0664 42.358 30.665 40.0873 29.9752C39.3989 27.7032 37.998 25.713 36.0915 24.2985C34.1849 22.884 31.874 22.1203 29.5 22.1203C27.126 22.1203 24.8151 22.884 22.9085 24.2985C21.002 25.713 19.6011 27.7032 18.9127 29.9752C16.6425 30.6659 14.6542 32.0676 13.2409 33.9737C11.8275 35.8798 11.0639 38.1895 11.0625 40.5625C11.061 41.8185 11.274 43.0656 11.6921 44.25H47.3079Z" fill="#93B4EB"/>
<path d="M224.308 47.9375C224.726 46.7531 224.939 45.506 224.937 44.25C224.937 41.8768 224.174 39.5666 222.76 37.6602C221.347 35.7539 219.358 34.3525 217.087 33.6627C216.399 31.3907 214.998 29.4005 213.091 27.986C211.185 26.5715 208.874 25.8078 206.5 25.8078C204.126 25.8078 201.815 26.5715 199.909 27.986C198.002 29.4005 196.601 31.3907 195.913 33.6627C193.642 34.3534 191.654 35.7551 190.241 37.6612C188.827 39.5673 188.064 41.877 188.062 44.25C188.061 45.506 188.274 46.7531 188.692 47.9375H224.308Z" fill="#96B4E7"/>
<path d="M198.495 33.1875C198.914 32.0031 199.126 30.756 199.125 29.5C199.125 27.1268 198.361 24.8166 196.948 22.9102C195.534 21.0039 193.545 19.6025 191.275 18.9127C190.586 16.6407 189.185 14.6505 187.279 13.236C185.372 11.8215 183.061 11.0578 180.687 11.0578C178.314 11.0578 176.003 11.8215 174.096 13.236C172.189 14.6505 170.789 16.6407 170.1 18.9127C167.83 19.6034 165.842 21.0051 164.428 22.9112C163.015 24.8173 162.251 27.127 162.25 29.5C162.249 30.756 162.461 32.0031 162.88 33.1875H198.495Z" fill="#93B4EB"/>
<path d="M61.3047 70.0625C62.5775 70.0625 63.6094 69.0307 63.6094 67.7578C63.6094 66.485 62.5775 65.4531 61.3047 65.4531C60.0318 65.4531 59 66.485 59 67.7578C59 69.0307 60.0318 70.0625 61.3047 70.0625Z" fill="#0A6FA2"/>
<path d="M153.492 70.9844C154.765 70.9844 155.797 69.9525 155.797 68.6797C155.797 67.4068 154.765 66.375 153.492 66.375C152.219 66.375 151.187 67.4068 151.187 68.6797C151.187 69.9525 152.219 70.9844 153.492 70.9844Z" fill="#7672B5"/>
<path d="M202.812 132.75H202.618C197.466 132.752 192.347 131.921 187.459 130.29L183.209 128.874C182.281 128.564 181.514 127.899 181.077 127.024C180.639 126.15 180.567 125.137 180.877 124.209C181.186 123.281 181.851 122.514 182.726 122.077C183.601 121.64 184.613 121.568 185.541 121.877L189.791 123.294C193.927 124.673 198.258 125.376 202.618 125.375H202.812C203.79 125.375 204.728 125.763 205.42 126.455C206.111 127.147 206.5 128.085 206.5 129.062C206.5 130.04 206.111 130.978 205.42 131.67C204.728 132.361 203.79 132.75 202.812 132.75Z" fill="#EAEAE8"/>
<path d="M106.938 136.437C98.995 136.445 91.2292 134.094 84.6249 129.682L82.7669 128.443C81.9531 127.901 81.3881 127.057 81.1962 126.098C81.0044 125.139 81.2013 124.143 81.7438 123.33C82.2863 122.516 83.1298 121.951 84.0889 121.759C85.0479 121.567 86.0439 121.764 86.8577 122.307L88.7157 123.545C94.1091 127.148 100.451 129.069 106.938 129.062C107.916 129.062 108.853 129.451 109.545 130.143C110.237 130.834 110.625 131.772 110.625 132.75C110.625 133.728 110.237 134.666 109.545 135.357C108.853 136.049 107.916 136.437 106.938 136.437Z" fill="#EAEAE8"/>
<path d="M162.25 84.8125L180.269 87.6791C182.946 88.2139 185.405 89.529 187.336 91.4588L199.125 103.25H184.874C182.144 103.25 179.475 102.442 177.204 100.928L165.937 95.875L162.25 84.8125Z" fill="#443F91"/>
<path d="M199.125 103.25H195.437L187.334 95.1467C185.404 93.2163 182.945 91.901 180.268 91.367L163.55 88.7074L162.25 84.8125L180.268 87.6795C182.945 88.2135 185.404 89.5288 187.334 91.4592L199.125 103.25Z" fill="#524E9F"/>
<path d="M191.75 106.172V106.938H184.873C182.143 106.938 179.474 106.13 177.203 104.614L165.937 99.5625L162.25 88.5L163.55 88.7074L165.937 95.875L177.203 100.927C179.474 102.442 182.143 103.25 184.873 103.25H191.575C191.693 104.22 191.752 105.196 191.75 106.172Z" fill="#524E9F"/>
<path d="M168.545 119.08C168.203 118.738 167.796 118.466 167.349 118.281C166.901 118.095 166.422 118 165.937 118C165.453 118 164.974 118.095 164.526 118.281C164.079 118.466 163.672 118.738 163.33 119.08L157.355 125.055L153.233 122.307C152.83 122.035 152.378 121.846 151.901 121.75C151.425 121.653 150.935 121.652 150.458 121.746C149.981 121.84 149.528 122.028 149.124 122.297C148.719 122.567 148.373 122.914 148.103 123.318C147.834 123.723 147.647 124.176 147.553 124.653C147.459 125.13 147.461 125.62 147.557 126.097C147.654 126.573 147.843 127.025 148.115 127.428C148.387 127.831 148.736 128.176 149.142 128.443L160.204 135.818C161.018 136.354 162.011 136.547 162.966 136.353C163.921 136.159 164.761 135.596 165.302 134.785C165.842 133.974 166.04 132.982 165.851 132.026C165.663 131.07 165.104 130.227 164.296 129.682L163.613 129.227L168.545 124.295C168.887 123.953 169.159 123.546 169.344 123.099C169.53 122.651 169.625 122.172 169.625 121.688C169.625 121.203 169.53 120.724 169.344 120.276C169.159 119.829 168.887 119.422 168.545 119.08Z" fill="#FBB540"/>
<path d="M184.375 136.438V129.062C184.375 128.085 183.986 127.147 183.295 126.455C182.603 125.764 181.665 125.375 180.687 125.375C179.709 125.375 178.772 125.764 178.08 126.455C177.388 127.147 177 128.085 177 129.062V136.438H173.312C172.334 136.438 171.397 136.826 170.705 137.518C170.013 138.209 169.625 139.147 169.625 140.125C169.625 141.103 170.013 142.041 170.705 142.732C171.397 143.424 172.334 143.812 173.312 143.812H184.375C185.353 143.812 186.291 143.424 186.982 142.732C187.674 142.041 188.062 141.103 188.062 140.125C188.062 139.147 187.674 138.209 186.982 137.518C186.291 136.826 185.353 136.438 184.375 136.438Z" fill="#FBB540"/>
<path d="M47.9421 221.775C47.7465 221.775 47.5513 221.76 47.3581 221.729C45.1091 221.391 42.8368 221.23 40.5625 221.25C39.5845 221.25 38.6466 220.862 37.955 220.17C37.2635 219.478 36.875 218.541 36.875 217.563C36.875 216.585 37.2635 215.647 37.955 214.955C38.6466 214.264 39.5845 213.875 40.5625 213.875C43.2249 213.855 45.8847 214.046 48.5169 214.446C49.4323 214.592 50.2591 215.078 50.8326 215.806C51.4062 216.534 51.6844 217.452 51.6119 218.376C51.5394 219.3 51.1216 220.163 50.4415 220.793C49.7614 221.423 48.8691 221.773 47.9421 221.775V221.775Z" fill="#C8C6F2"/>
<path d="M55.3125 169.625C55.3125 170.603 54.924 171.541 54.2325 172.232C53.5409 172.924 52.603 173.313 51.625 173.313H35.9024L31.8969 166.173C32.3092 166.016 32.7466 165.937 33.1875 165.938H51.625C52.603 165.938 53.5409 166.326 54.2325 167.018C54.924 167.709 55.3125 168.647 55.3125 169.625Z" fill="#B4B1E0"/>
<path d="M73.75 173.312H66.375C65.397 173.312 64.4591 172.924 63.7675 172.232C63.076 171.541 62.6875 170.603 62.6875 169.625C62.6875 168.647 63.076 167.709 63.7675 167.018C64.4591 166.326 65.397 165.938 66.375 165.938H73.75C74.728 165.938 75.6659 166.326 76.3575 167.018C77.049 167.709 77.4375 168.647 77.4375 169.625C77.4375 170.603 77.049 171.541 76.3575 172.232C75.6659 172.924 74.728 173.312 73.75 173.312Z" fill="#B4B1E0"/>
<path d="M129.062 173.312H88.5C87.522 173.312 86.5841 172.924 85.8925 172.232C85.201 171.541 84.8125 170.603 84.8125 169.625C84.8125 168.647 85.201 167.709 85.8925 167.018C86.5841 166.326 87.522 165.938 88.5 165.938H129.062C130.04 165.938 130.978 166.326 131.67 167.018C132.361 167.709 132.75 168.647 132.75 169.625C132.75 170.603 132.361 171.541 131.67 172.232C130.978 172.924 130.04 173.312 129.062 173.312Z" fill="#B4B1E0"/>
<path d="M147.5 173.312H140.125C139.147 173.312 138.209 172.924 137.518 172.232C136.826 171.541 136.437 170.603 136.437 169.625C136.437 168.647 136.826 167.709 137.518 167.018C138.209 166.326 139.147 165.938 140.125 165.938H147.5C148.478 165.938 149.416 166.326 150.107 167.018C150.799 167.709 151.187 168.647 151.187 169.625C151.187 170.603 150.799 171.541 150.107 172.232C149.416 172.924 148.478 173.312 147.5 173.312Z" fill="#B4B1E0"/>
<path d="M206.21 165.938L202.462 173.312H162.25C161.272 173.312 160.334 172.924 159.643 172.232C158.951 171.541 158.562 170.603 158.562 169.625C158.562 168.647 158.951 167.709 159.643 167.018C160.334 166.326 161.272 165.938 162.25 165.938H206.21Z" fill="#B4B1E0"/>
<path d="M132.75 103.25L126.429 88.5H140.125L151.187 103.25H132.75Z" fill="#0A9ACD"/>
<path d="M73.75 36.875H62.6875C61.7095 36.875 60.7716 36.4865 60.08 35.795C59.3885 35.1034 59 34.1655 59 33.1875C59 32.2095 59.3885 31.2716 60.08 30.58C60.7716 29.8885 61.7095 29.5 62.6875 29.5H73.75C74.728 29.5 75.6659 29.8885 76.3575 30.58C77.049 31.2716 77.4375 32.2095 77.4375 33.1875C77.4375 34.1655 77.049 35.1034 76.3575 35.795C75.6659 36.4865 74.728 36.875 73.75 36.875Z" fill="#B0D2FD"/>
<path d="M88.5 36.875H84.8125C83.8345 36.875 82.8966 36.4865 82.205 35.795C81.5135 35.1034 81.125 34.1655 81.125 33.1875C81.125 32.2095 81.5135 31.2716 82.205 30.58C82.8966 29.8885 83.8345 29.5 84.8125 29.5H88.5C89.478 29.5 90.4159 29.8885 91.1075 30.58C91.799 31.2716 92.1875 32.2095 92.1875 33.1875C92.1875 34.1655 91.799 35.1034 91.1075 35.795C90.4159 36.4865 89.478 36.875 88.5 36.875Z" fill="#B0D2FD"/>
<path d="M70.0625 22.125H51.625C50.647 22.125 49.7091 21.7365 49.0175 21.045C48.326 20.3534 47.9375 19.4155 47.9375 18.4375C47.9375 17.4595 48.326 16.5216 49.0175 15.83C49.7091 15.1385 50.647 14.75 51.625 14.75H70.0625C71.0405 14.75 71.9784 15.1385 72.67 15.83C73.3615 16.5216 73.75 17.4595 73.75 18.4375C73.75 19.4155 73.3615 20.3534 72.67 21.045C71.9784 21.7365 71.0405 22.125 70.0625 22.125Z" fill="#B0D2FD"/>
<path d="M132.75 47.9375H129.062C128.084 47.9375 127.147 47.549 126.455 46.8575C125.763 46.1659 125.375 45.228 125.375 44.25C125.375 43.272 125.763 42.3341 126.455 41.6425C127.147 40.951 128.084 40.5625 129.062 40.5625H132.75C133.728 40.5625 134.666 40.951 135.357 41.6425C136.049 42.3341 136.437 43.272 136.437 44.25C136.437 45.228 136.049 46.1659 135.357 46.8575C134.666 47.549 133.728 47.9375 132.75 47.9375Z" fill="#B0D2FD"/>
<path d="M162.25 47.9375H147.5C146.522 47.9375 145.584 47.549 144.893 46.8575C144.201 46.1659 143.812 45.228 143.812 44.25C143.812 43.272 144.201 42.3341 144.893 41.6425C145.584 40.951 146.522 40.5625 147.5 40.5625H162.25C163.228 40.5625 164.166 40.951 164.857 41.6425C165.549 42.3341 165.937 43.272 165.937 44.25C165.937 45.228 165.549 46.1659 164.857 46.8575C164.166 47.549 163.228 47.9375 162.25 47.9375Z" fill="#B0D2FD"/>
<path d="M147.5 33.1875H125.375C124.397 33.1875 123.459 32.799 122.768 32.1075C122.076 31.4159 121.688 30.478 121.688 29.5C121.688 28.522 122.076 27.5841 122.768 26.8925C123.459 26.201 124.397 25.8125 125.375 25.8125H147.5C148.478 25.8125 149.416 26.201 150.107 26.8925C150.799 27.5841 151.188 28.522 151.188 29.5C151.188 30.478 150.799 31.4159 150.107 32.1075C149.416 32.799 148.478 33.1875 147.5 33.1875Z" fill="#B0D2FD"/>
<path d="M93.7086 117.167L95.58 107.823C96.1758 104.843 95.8643 101.752 94.6858 98.9504L89.3182 90.7637L78.0552 88.5V99.4215L79.7698 104.14C80.9035 107.255 82.7569 110.059 85.1791 112.322C87.6012 114.586 90.5237 116.246 93.7086 117.167Z" fill="#7873C5"/>
<path d="M84.1395 115.188L92.8052 121.687L93.7086 117.167C90.5237 116.246 87.6012 114.586 85.1791 112.322C82.7569 110.059 80.9035 107.255 79.7698 104.14L78.0552 99.4214V103.02C78.0548 105.381 78.6045 107.71 79.6606 109.822C80.7167 111.934 82.2502 113.772 84.1395 115.188Z" fill="#524E9F"/>
<path d="M98.6498 107.823L95.875 121.688L93.2062 119.687L87.2094 115.188C85.32 113.772 83.7865 111.934 82.7304 109.822C81.6743 107.71 81.1247 105.381 81.125 103.02L90.648 89.3297H93.7132L97.7556 98.9495C98.9319 101.752 99.2433 104.842 98.6498 107.823Z" fill="#524E9F"/>
<path d="M95.58 107.823L93.2062 119.687L87.2094 115.188C85.32 113.772 83.7865 111.934 82.7304 109.822C81.6743 107.71 81.1247 105.381 81.125 103.02V88.7028L90.648 89.3297L94.6858 98.9495C95.8643 101.751 96.1758 104.842 95.58 107.823Z" fill="#443F90"/>
<path d="M190.86 117.982C189.713 122.14 187.507 125.929 184.458 128.98L184.375 129.062H184.108C180.729 129.062 177.392 128.32 174.332 126.887C171.273 125.454 168.566 123.366 166.403 120.77L163.637 117.451C157.977 110.658 154.876 102.095 154.875 93.2523V93.1509C154.876 90.0616 154.496 86.9841 153.746 83.9874L151.187 77.4375H151.275C154.492 77.4378 157.63 78.4278 160.265 80.2733C162.9 82.1188 164.903 84.7303 166.002 87.7533L171.957 104.14C173.385 108.058 175.943 111.466 179.308 113.93C182.673 116.394 186.693 117.804 190.86 117.982Z" fill="#EAEAE8"/>
</svg>
