<svg width="310" height="252" viewBox="0 0 310 252" fill="none" xmlns="http://www.w3.org/2000/svg">
<path d="M3.36761 98.4452C12.0288 42.2452 41.9558 1.67669 77.0837 0.0495229C95.6548 -0.810711 115.197 9.35283 129.425 44.9188C154.859 108.497 127.862 152.431 109.04 173.308C99.939 183.403 91.7637 195.574 84.6972 209.412C71.9838 234.306 47.5262 265.242 18.3982 216.771C-2.71377 181.639 -2.40158 135.88 3.36761 98.4452Z" fill="#F2F2F2"/>
<path d="M309.84 61.3807H60.2609V216.416H309.84V61.3807Z" fill="#E6E6E6"/>
<path d="M122.708 91.2478H76.9971V120.887H122.708V91.2478Z" fill="white"/>
<path d="M179.506 91.2478H133.796V120.887H179.506V91.2478Z" fill="white"/>
<path d="M236.305 91.2478H190.595V120.887H236.305V91.2478Z" fill="white"/>
<path d="M293.104 91.2478H247.393V120.887H293.104V91.2478Z" fill="white"/>
<path d="M122.708 133.198H76.9971V162.838H122.708V133.198Z" fill="white"/>
<path d="M179.506 133.198H133.796V162.838H179.506V133.198Z" fill="white"/>
<path d="M236.305 133.198H190.595V162.838H236.305V133.198Z" fill="white"/>
<path d="M293.104 133.198H247.393V162.838H293.104V133.198Z" fill="white"/>
<path d="M122.708 175.149H76.9971V204.788H122.708V175.149Z" fill="white"/>
<path d="M179.506 175.149H133.796V204.788H179.506V175.149Z" fill="white"/>
<path d="M236.305 175.149H190.595V204.788H236.305V175.149Z" fill="white"/>
<path d="M293.104 175.149H247.393V204.788H293.104V175.149Z" fill="white"/>
<path d="M125.627 79.6201C129.414 79.6201 132.483 76.5579 132.483 72.7804C132.483 69.0029 129.414 65.9406 125.627 65.9406C121.84 65.9406 118.77 69.0029 118.77 72.7804C118.77 76.5579 121.84 79.6201 125.627 79.6201Z" fill="white"/>
<path d="M238.989 79.6201C242.776 79.6201 245.845 76.5579 245.845 72.7804C245.845 69.0029 242.776 65.9406 238.989 65.9406C235.202 65.9406 232.132 69.0029 232.132 72.7804C232.132 76.5579 235.202 79.6201 238.989 79.6201Z" fill="white"/>
<path d="M128.369 43.1413H122.884V74.6043H128.369V43.1413Z" fill="#E6E6E6"/>
<path d="M241.732 43.1413H236.246V74.6043H241.732V43.1413Z" fill="#E6E6E6"/>
<path d="M280.585 106.067C280.583 108.544 279.685 110.936 278.056 112.804C276.427 114.673 274.177 115.893 271.72 116.239C269.262 116.585 266.761 116.035 264.677 114.69C262.593 113.344 261.066 111.294 260.376 108.915C259.686 106.537 259.88 103.989 260.922 101.742C261.964 99.4943 263.784 97.6972 266.047 96.681C268.311 95.6647 270.866 95.4974 273.243 96.2099C275.621 96.9223 277.661 98.4667 278.988 100.559C280.032 102.208 280.586 104.118 280.585 106.067Z" fill="#6C63FF"/>
<path d="M278.988 100.559L268.813 110.707C268.173 109.72 264.61 105.13 264.61 105.13C265.067 104.67 265.554 104.24 266.069 103.846L269.023 107.775L277.796 99.0236C278.241 99.4968 278.64 100.011 278.988 100.559Z" fill="white"/>
<path d="M166.988 148.018C166.986 150.494 166.088 152.886 164.459 154.755C162.83 156.624 160.58 157.843 158.122 158.19C155.664 158.536 153.163 157.986 151.08 156.64C148.996 155.295 147.468 153.245 146.779 150.866C146.089 148.487 146.282 145.94 147.324 143.693C148.366 141.445 150.186 139.648 152.45 138.632C154.713 137.615 157.269 137.448 159.646 138.161C162.023 138.873 164.063 140.417 165.39 142.51C166.434 144.158 166.988 146.068 166.988 148.018Z" fill="#6C63FF"/>
<path d="M165.39 142.51L155.215 152.658C154.576 151.671 151.013 147.081 151.013 147.081C151.469 146.62 151.957 146.191 152.471 145.796L155.426 149.726L164.199 140.974C164.644 141.447 165.043 141.962 165.39 142.51Z" fill="white"/>
<path d="M110.189 148.018C110.187 150.494 109.289 152.886 107.66 154.755C106.031 156.624 103.781 157.843 101.323 158.19C98.8653 158.536 96.3646 157.986 94.2807 156.641C92.1968 155.295 90.6696 153.245 89.9797 150.866C89.2898 148.487 89.4836 145.94 90.5255 143.692C91.5673 141.445 93.3873 139.648 95.6509 138.632C97.9146 137.615 100.47 137.448 102.847 138.16C105.225 138.873 107.264 140.417 108.592 142.51C109.636 144.158 110.19 146.068 110.189 148.018Z" fill="#6C63FF"/>
<path d="M108.592 142.51L98.4165 152.658C97.777 151.671 94.2141 147.081 94.2141 147.081C94.6707 146.62 95.158 146.191 95.6726 145.796L98.627 149.726L107.4 140.974C107.845 141.447 108.244 141.962 108.592 142.51Z" fill="white"/>
<path d="M38.1093 220.634L36.9113 232.211L43.7014 231.413L44.5002 221.831L38.1093 220.634Z" fill="#FFB9B9"/>
<path d="M9.35062 175.123L14.1438 176.72C14.1438 176.72 32.9169 172.328 34.1152 172.728L37.8318 172.702L37.71 163.146H21.7329L9.35062 175.123Z" fill="#2F2E41"/>
<path d="M44.5003 229.816C44.5003 229.816 37.3106 226.622 36.1123 229.816C34.9141 233.01 35.3135 242.192 35.3135 242.192C35.3135 242.192 36.9112 244.986 36.1123 248.18C35.3135 251.374 39.3078 252.97 44.5003 251.374C49.6929 249.777 49.6929 245.785 49.6929 245.785L44.5003 229.816Z" fill="white"/>
<path d="M50.4917 162.348C50.4917 162.348 56.0837 159.154 55.6843 163.945C55.2849 168.736 53.2877 173.127 53.2877 173.127C53.2877 173.127 58.4803 186.7 53.2877 187.898C48.0952 189.096 44.1009 186.301 44.1009 184.305C44.1009 182.309 50.4917 162.348 50.4917 162.348Z" fill="white"/>
<path d="M32.9167 52.9624L33.7158 68.1328L40.506 74.1209L48.0952 63.3423V52.5633L32.9167 52.9624Z" fill="#FFB9B9"/>
<path d="M38.1095 68.1327L33.5369 64.7368L30.5203 69.3304L16.9397 77.3148L24.9283 98.0741L25.3277 118.434C25.3277 118.434 10.5489 133.604 19.3363 135.6C28.1237 137.597 59.2792 141.988 60.8769 138.395C62.4746 134.802 58.8797 97.6748 58.8797 97.6748L60.078 66.1367L48.0952 61.8066L38.1095 68.1327Z" fill="#D0CDE1"/>
<path d="M13.7443 93.417C13.7443 93.417 10.5489 116.039 16.5403 116.039C20.0986 116.051 23.6255 115.373 26.9255 114.043L22.1323 101.667L24.1295 93.2835L13.7443 93.417Z" fill="#FFB9B9"/>
<path d="M22.9312 113.244L27.3249 114.043C27.3249 114.043 40.1066 106.058 40.9055 105.659C41.7043 105.26 28.1237 98.4733 28.1237 98.4733L18.9369 102.066L22.9312 113.244Z" fill="#FFB9B9"/>
<path opacity="0.1" d="M28.1238 98.4733L22.3557 100.729L24.1295 93.2834L13.7443 93.417C13.7443 93.417 10.5489 116.039 16.5403 116.039C20.0986 116.051 23.6255 115.373 26.9255 114.043L26.8952 113.965L27.3249 114.043C27.3249 114.043 40.1066 106.058 40.9055 105.659C41.7043 105.26 28.1238 98.4733 28.1238 98.4733Z" fill="black"/>
<path d="M42.1574 60.5319C48.4565 60.5319 53.563 55.4281 53.563 49.1323C53.563 42.8365 48.4565 37.7327 42.1574 37.7327C35.8582 37.7327 30.7518 42.8365 30.7518 49.1323C30.7518 55.4281 35.8582 60.5319 42.1574 60.5319Z" fill="#FFB9B9"/>
<path d="M32.0735 36.272L29.845 35.3803C29.845 35.3803 34.5045 30.2532 40.9874 30.699L39.1641 28.6927C39.1641 28.6927 43.621 26.9094 47.6728 31.5907C49.8027 34.0516 52.2671 36.9442 53.8033 40.2027H56.1899L55.1938 42.3947L58.68 44.5867L55.1018 44.193C55.4407 46.0854 55.3247 48.0313 54.7634 49.8701L54.8593 51.6027C54.8593 51.6027 50.7116 45.1888 50.7116 44.2971V46.5263C50.7116 46.5263 48.4831 44.52 48.4831 43.1825L47.2676 44.743L46.6598 42.2908L39.1641 44.743L40.3796 42.7367L35.7201 43.4054L37.5434 40.9533C37.5434 40.9533 32.2762 43.8513 32.0735 46.3034C31.871 48.7555 29.2373 51.8764 29.2373 51.8764L28.0218 49.6472C28.0218 49.6472 26.1984 39.6158 32.0735 36.272Z" fill="#2F2E41"/>
<path d="M52.0895 86.4967C52.0895 86.4967 48.894 90.0897 48.894 95.2795L27.7243 94.4811C27.7243 94.4811 22.1323 93.6827 22.1323 97.6748V101.667C22.1323 101.667 24.9283 100.469 26.526 101.667C28.1238 102.865 45.2992 113.244 53.6872 109.252C62.0752 105.26 64.0723 89.6905 64.0723 89.6905C64.0723 89.6905 56.4832 83.303 52.0895 86.4967Z" fill="#FFB9B9"/>
<path d="M56.8826 66.5359L60.078 66.1367C60.078 66.1367 66.4689 66.9351 65.67 79.3108C64.8712 91.6866 64.4717 92.485 64.4717 92.485C64.4717 92.485 56.0838 84.8999 50.0923 88.4928L56.8826 66.5359Z" fill="#D0CDE1"/>
<path d="M18.5375 77.3148H16.9398C14.8698 79.9281 13.7438 83.1636 13.7443 86.4968C13.7076 90.0667 13.2382 93.619 12.3463 97.076L24.9283 94.8803L18.5375 77.3148Z" fill="#D0CDE1"/>
<path d="M20.1352 132.806C20.1352 132.806 -14.6151 166.34 7.35348 176.72H14.1438C14.1438 176.72 28.9226 152.368 36.1123 152.767L38.1095 175.921L36.9112 222.63L45.6986 223.029C45.6986 223.029 50.8912 199.475 50.4918 186.301L59.6786 137.597L20.1352 132.806Z" fill="#2F2E41"/>
</svg>
